{"glyphs":{":":{"x_min":0,"x_max":163,"ha":163,"o":"m 62 -76 b 31 -76 6 -100 6 -130 b 6 -159 31 -183 62 -183 b 94 -183 119 -159 119 -130 b 119 -100 94 -76 62 -76 z m 62 304 b 31 304 6 280 6 250 b 6 221 31 197 62 197 b 94 197 119 221 119 250 b 119 280 94 304 62 304 z"},"$":{"x_min":0,"x_max":524,"ha":524,"o":"m 216 -404 b 238 -409 251 -402 255 -382 b 257 -375 258 -308 260 -215 b 323 -212 383 -197 426 -168 b 460 -145 479 -113 479 -84 b 479 -61 467 -39 438 -24 b 405 -6 332 3 262 15 b 263 94 264 173 264 240 b 273 242 281 243 287 244 b 301 246 313 247 325 247 b 395 247 428 219 433 194 b 433 192 433 190 433 188 b 433 165 412 137 390 137 b 390 137 390 137 390 137 l 390 137 b 385 137 380 128 380 120 b 380 120 380 119 380 118 b 382 109 385 103 393 103 b 394 103 395 103 397 103 b 427 109 459 143 459 193 b 459 195 459 198 459 200 b 456 248 406 299 311 299 b 299 299 286 298 273 297 b 270 296 267 296 264 295 b 264 355 263 397 262 408 b 257 456 242 470 219 448 b 211 440 207 414 204 281 b 121 256 25 203 25 122 b 25 122 25 122 25 121 b 25 20 151 -14 199 -25 b 199 -68 198 -109 198 -147 b 191 -147 185 -147 179 -147 b 125 -147 77 -139 52 -119 b 52 -118 51 -117 51 -117 b 51 -114 59 -112 60 -91 b 60 -91 60 -90 60 -90 b 60 -73 51 -64 39 -64 b 36 -64 33 -64 29 -65 b 16 -70 8 -85 6 -104 b 6 -105 6 -107 6 -109 b 6 -129 17 -158 51 -176 b 92 -197 144 -210 197 -214 b 197 -318 197 -388 198 -391 b 200 -397 208 -402 216 -404 z m 200 29 b 128 49 69 78 69 107 b 69 108 69 109 70 109 b 74 157 141 197 203 220 b 202 169 201 106 200 29 z m 262 -37 b 332 -48 427 -61 427 -86 b 427 -86 427 -87 427 -87 b 426 -107 347 -131 261 -142 b 261 -108 262 -73 262 -37 z"},"?":{"x_min":0,"x_max":493,"ha":493,"o":"m 130 -422 b 176 -454 239 -420 239 -364 b 240 -291 143 -277 108 -344 b 92 -373 101 -402 130 -422 z m 145 -257 b 165 -263 207 -253 216 -240 b 219 -236 221 -219 221 -202 b 219 -138 236 -100 309 -4 b 421 142 449 200 449 282 b 449 335 430 377 391 412 b 285 506 83 450 24 312 b -21 206 20 83 100 81 b 139 80 156 98 152 137 b 146 199 150 239 167 268 b 192 311 229 339 268 344 b 298 347 304 345 325 323 b 347 300 349 294 345 254 b 339 202 309 152 216 38 b 137 -58 109 -107 103 -161 b 97 -208 114 -246 145 -257 z"},"<":{"x_min":0,"x_max":430,"ha":430,"o":"m 221 -43 b 291 -77 353 -104 359 -104 b 373 -104 390 -81 385 -69 b 383 -63 323 -27 252 12 b 182 51 124 84 124 86 b 124 88 177 127 243 173 b 361 254 382 278 347 291 b 332 297 287 275 138 188 b 17 118 0 103 7 77 b 12 55 9 57 221 -43 z"},"'":{"x_min":0,"x_max":153,"ha":153,"o":"m 84 448 b 51 473 6 451 6 410 b 5 387 21 368 43 366 l 60 365 l 39 347 b 22 333 19 328 24 320 b 34 303 58 308 80 330 b 117 368 119 421 84 448 z"},"=":{"x_min":0,"x_max":544,"ha":544,"o":"m 45 -63 b 99 -73 476 -63 489 -53 b 506 -39 503 -14 483 -4 b 462 7 25 -8 13 -20 b -5 -37 11 -58 45 -63 z m 45 55 b 99 46 476 55 489 66 b 506 80 503 105 483 115 b 462 126 25 111 13 99 b -5 82 11 61 45 55 z"},"a":{"x_min":0,"x_max":417,"ha":417,"o":"m 180 -19 b 177 -24 173 -33 168 -39 b 151 -61 125 -87 109 -102 b 97 -114 83 -124 70 -130 b 44 -143 17 -140 27 -120 b 33 -108 43 -95 55 -82 b 79 -58 111 -36 141 -25 b 155 -20 169 -17 180 -19 z m 184 -84 b 184 -101 185 -114 188 -124 b 196 -151 222 -179 246 -187 b 276 -197 303 -192 336 -180 b 377 -164 402 -125 463 -36 b 470 -27 473 -13 465 -4 b 457 4 441 3 434 -7 b 389 -69 370 -108 337 -133 b 317 -148 292 -146 287 -122 b 282 -98 284 -53 292 -20 b 298 9 275 30 251 32 b 237 34 221 28 210 19 b 194 37 161 60 98 48 b 61 41 19 5 0 -31 b -20 -69 -32 -118 -21 -152 b -12 -177 13 -182 24 -183 b 53 -186 100 -168 138 -132 b 151 -120 168 -102 184 -84 z"},"L":{"x_min":0,"x_max":421,"ha":421,"o":"m 229 365 b 225 292 218 181 219 18 b 219 -124 213 -282 214 -304 b 129 -304 76 -309 45 -323 b -19 -352 -5 -400 29 -399 b 112 -394 289 -365 973 -417 b 1059 -423 1086 -335 1031 -329 b 924 -319 456 -302 302 -303 b 303 -258 324 296 322 367 b 322 395 311 460 273 457 b 247 456 232 415 229 365 z"},"3":{"x_min":0,"x_max":716,"ha":716,"o":"m 262 -278 l 262 -278 b 331 -288 329 -288 403 -275 b 592 -242 716 -120 682 1 b 671 42 612 96 562 112 l 529 123 l 583 162 b 710 254 713 376 589 432 b 457 492 220 444 135 340 b 101 299 94 245 119 224 b 143 202 165 209 172 242 b 180 280 214 312 276 339 b 324 361 338 363 422 363 b 496 363 522 360 544 348 b 605 316 561 267 394 182 b 309 139 280 120 277 106 b 274 95 274 83 277 78 b 280 73 317 70 365 71 b 432 71 457 68 496 53 b 545 35 580 4 580 -21 b 580 -68 504 -124 398 -155 b 328 -177 210 -175 165 -152 b 108 -122 87 -74 112 -29 b 117 -20 119 -6 116 3 b 109 25 68 25 48 3 b 28 -18 21 -85 35 -126 b 60 -198 156 -263 262 -278 z"},";":{"x_min":0,"x_max":163,"ha":163,"o":"m 89 -62 b 56 -37 11 -59 11 -100 b 10 -123 27 -142 48 -144 l 65 -145 l 44 -162 b 27 -176 24 -182 29 -190 b 39 -206 63 -202 85 -180 b 122 -141 124 -89 89 -62 z m 62 305 b 31 305 6 281 6 251 b 6 222 31 198 62 198 b 94 198 119 222 119 251 b 119 281 94 305 62 305 z"},"J":{"x_min":0,"x_max":1101,"ha":1101,"o":"m 991 360 b 991 360 1013 132 897 -51 b 792 -214 539 -338 252 -274 b 54 -230 53 -126 201 -71 b 321 -27 500 -26 582 -37 b 657 -46 675 -1 601 27 b 527 55 247 52 99 -31 b -76 -130 -49 -406 431 -385 b 869 -366 1056 -103 1073 162 b 1078 259 1061 358 1049 380 b 1049 380 1070 402 1063 431 b 1058 457 1018 467 991 447 b 964 427 863 392 769 391 b 674 389 568 393 506 411 b 489 417 468 421 459 413 b 449 404 447 392 453 381 b 496 304 699 295 804 310 b 899 323 991 360 991 360 z"},"V":{"x_min":0,"x_max":1083,"ha":1083,"o":"m 11 379 b 100 199 332 -308 516 -413 b 726 -533 1042 62 1109 295 b 1178 534 1082 453 1068 400 b 1049 331 1004 146 863 -66 b 637 -402 532 -343 442 -158 b 352 26 134 366 77 417 b 57 435 30 448 8 432 b -5 422 -1 403 11 379 z"},"\"":{"x_min":0,"x_max":267,"ha":267,"o":"m 84 448 b 51 473 6 451 6 410 b 5 387 21 368 43 366 l 60 365 l 39 347 b 22 333 19 328 24 320 b 34 303 58 308 80 330 b 117 368 119 421 84 448 z m 198 448 b 165 473 120 451 120 410 b 119 387 135 368 157 366 l 174 365 l 153 347 b 136 333 133 328 138 320 b 147 303 172 308 194 330 b 231 368 233 421 198 448 z"},"7":{"x_min":0,"x_max":591,"ha":591,"o":"m 125 -275 l 125 -275 b 137 -287 154 -296 164 -296 b 187 -296 224 -260 224 -237 b 224 -227 237 -180 254 -131 b 306 21 458 285 531 351 b 568 384 572 405 548 433 b 533 452 532 452 455 441 b 365 429 189 434 107 452 b 50 465 28 459 28 432 b 28 402 43 386 94 364 b 147 341 269 317 335 317 l 377 317 l 327 249 b 237 126 165 -10 126 -132 b 98 -216 98 -249 125 -275 z"},"S":{"x_min":0,"x_max":1121,"ha":1121,"o":"m 902 143 b 975 153 1055 213 1047 299 b 1039 385 894 478 617 453 b 424 436 45 343 44 173 b 43 -4 388 -53 470 -67 b 601 -88 979 -108 973 -161 b 967 -223 283 -315 108 -212 b 97 -205 124 -209 125 -168 b 127 -134 94 -117 55 -127 b 25 -134 6 -158 1 -189 b -5 -219 18 -273 106 -305 b 345 -390 756 -392 970 -291 b 1111 -225 1146 -114 998 -60 b 921 -32 752 -17 591 3 b 365 30 140 92 148 153 b 163 273 533 359 650 369 b 872 388 973 334 985 289 b 996 251 942 197 887 197 b 875 197 862 181 865 166 b 869 150 879 140 902 143 z"},"}":{"x_min":0,"x_max":291,"ha":291,"o":"m 12 -438 b 49 -481 160 -404 187 -316 b 193 -294 201 -238 204 -192 b 208 -126 214 -97 231 -64 b 252 -20 251 -4 228 -4 b 202 -4 190 53 183 203 b 175 364 165 403 121 440 b 92 464 52 465 48 442 b 46 434 55 419 67 409 b 99 382 106 346 106 203 b 106 70 118 1 144 -20 b 154 -28 154 -34 143 -59 b 135 -77 127 -133 123 -198 b 116 -332 99 -368 35 -392 b 7 -402 -2 -421 12 -438 z"},"Z":{"x_min":0,"x_max":1076,"ha":1076,"o":"m 241 -296 b 454 -287 846 -376 1003 -390 b 1162 -404 1203 -291 1137 -269 b 1120 -263 1104 -260 1049 -265 b 852 -284 445 -203 445 -203 b 610 -143 1083 267 1161 394 b 1197 454 1134 473 1031 443 b 870 395 434 438 315 411 b 265 400 222 353 235 321 b 249 286 403 307 440 309 b 669 324 897 316 994 348 b 771 142 504 -45 209 -203 b 32 -193 -27 -275 11 -317 b 64 -377 211 -319 241 -296 z"},"x":{"x_min":0,"x_max":304,"ha":304,"o":"m 23 -100 b -2 -129 -26 -158 -48 -183 b -56 -192 -55 -205 -47 -213 b -38 -220 -25 -219 -17 -211 b 1 -190 22 -167 43 -143 b 55 -161 71 -177 86 -182 b 116 -195 143 -192 175 -180 b 217 -164 278 -110 356 -35 b 365 -27 365 -14 357 -5 b 349 3 336 3 328 -5 b 265 -66 206 -108 177 -120 b 154 -129 134 -127 124 -104 b 120 -94 116 -82 112 -68 b 163 -13 207 35 224 54 b 231 63 230 71 222 78 b 213 86 186 91 178 83 b 165 67 137 33 102 -8 b 100 9 99 26 99 42 b 98 71 82 92 58 94 b 34 96 5 79 1 55 b -9 4 13 -69 23 -100 z"},")":{"x_min":0,"x_max":221,"ha":221,"o":"m 90 427 b 59 461 30 468 11 446 b 2 435 3 429 18 410 b 67 346 92 259 102 123 b 112 -31 76 -255 23 -360 b -1 -407 2 -428 32 -434 b 54 -438 72 -420 97 -365 b 153 -245 177 -115 177 65 b 177 255 152 360 90 427 z"},"&":{"x_min":0,"x_max":643,"ha":643,"o":"m 470 -416 b 516 -443 558 -465 563 -465 b 584 -465 602 -443 599 -419 b 597 -399 585 -389 524 -355 b 484 -333 449 -312 446 -309 b 442 -306 447 -283 456 -258 b 483 -183 474 -109 439 -109 b 423 -109 405 -136 405 -161 b 405 -195 390 -247 378 -254 b 355 -245 269 -147 256 -125 l 233 -84 l 271 -42 b 342 38 396 170 396 267 b 396 399 318 477 206 454 b 15 416 -56 153 66 -69 l 92 -116 l 70 -144 b -72 -325 119 -509 331 -396 l 385 -367 z m 267 74 b 242 27 217 -14 212 -15 b 196 -21 181 76 185 162 b 191 282 228 351 283 345 b 303 343 309 336 319 307 b 339 253 322 179 267 74 z m 256 -348 b 208 -360 185 -359 152 -345 b 119 -331 107 -310 107 -266 b 107 -236 126 -183 137 -183 b 140 -183 228 -288 279 -318 b 308 -336 308 -335 256 -348 z"},"_":{"x_min":0,"x_max":544,"ha":544,"o":"m 45 -274 b 99 -283 476 -274 489 -264 b 506 -250 503 -225 483 -215 b 462 -204 25 -219 13 -231 b -5 -248 11 -269 45 -274 z"},"v":{"x_min":0,"x_max":264,"ha":264,"o":"m 156 -83 b 151 -97 134 -146 125 -146 b 116 -146 105 -102 102 -86 b 96 -49 94 -8 100 41 b 101 56 94 77 64 81 b 25 86 5 63 3 49 b -5 -22 5 -80 20 -125 b 38 -176 84 -217 110 -217 b 137 -217 175 -170 192 -128 b 212 -78 227 -14 232 38 b 234 53 229 66 214 68 b 199 69 186 58 185 44 b 181 7 169 -40 156 -83 z"},"O":{"x_min":0,"x_max":913,"ha":913,"o":"m 390 365 b 436 382 502 376 587 345 b 734 291 812 177 812 17 b 812 -182 551 -367 363 -338 b 136 -303 114 -155 139 -28 b 168 110 323 339 390 365 z m 364 448 b 175 375 32 160 7 -4 b -15 -152 18 -264 84 -340 b 151 -417 245 -445 361 -447 b 558 -450 889 -266 885 59 b 881 383 477 492 364 448 z"},"(":{"x_min":0,"x_max":221,"ha":221,"o":"m 92 -403 b 124 -437 153 -444 171 -422 b 180 -412 179 -406 165 -387 b 116 -322 91 -236 81 -99 b 70 55 107 279 160 384 b 183 431 181 452 151 458 b 128 462 111 443 86 389 b 30 269 6 138 6 -42 b 5 -232 31 -337 92 -403 z"},"C":{"x_min":0,"x_max":953,"ha":953,"o":"m 583 215 b 554 266 423 179 435 80 b 449 -51 675 -74 810 68 b 945 210 838 438 545 454 b 266 470 45 259 10 101 b -48 -162 160 -310 319 -338 b 715 -410 934 -163 970 -122 b 1010 -76 1010 -51 990 -38 b 966 -22 947 -44 919 -77 b 879 -122 769 -222 619 -257 b 235 -346 21 -94 130 127 b 246 362 526 425 718 319 b 909 214 695 25 561 61 b 510 75 516 125 547 153 b 584 185 593 197 583 215 z"},"W":{"x_min":0,"x_max":1284,"ha":1284,"o":"m 140 415 b 142 442 128 541 59 440 b 25 390 -12 220 4 52 b 22 -148 121 -319 238 -364 b 422 -435 556 -111 556 -111 b 591 -278 705 -353 776 -353 b 886 -353 1047 -283 1176 11 b 1272 232 1316 330 1386 428 b 1412 465 1390 524 1341 475 b 1305 439 1267 378 1213 255 b 1155 121 1090 -29 1020 -128 b 872 -336 725 -277 682 -124 b 653 -21 668 188 688 280 b 697 322 666 358 613 273 b 575 214 539 73 539 -9 b 539 -66 393 -308 303 -308 b 253 -308 161 -155 133 46 b 112 199 135 359 140 415 z"},"A":{"x_min":0,"x_max":965,"ha":965,"o":"m 649 422 b 631 470 558 466 540 412 b 521 358 453 160 377 -2 b 374 -9 370 -16 367 -23 b 294 -30 232 -39 199 -47 b 192 -49 169 -63 171 -85 b 173 -106 187 -111 198 -112 b 213 -114 260 -109 323 -102 b 258 -205 188 -267 146 -280 b 108 -292 86 -274 85 -257 b 83 -234 121 -239 124 -207 b 127 -182 92 -159 52 -183 b 14 -205 -4 -251 1 -286 b 6 -322 49 -400 159 -380 b 302 -353 407 -222 481 -85 b 499 -83 518 -82 537 -80 b 605 -74 673 -70 729 -67 b 748 -114 767 -157 783 -189 b 836 -295 898 -369 915 -383 b 933 -397 951 -396 960 -385 b 970 -373 967 -353 951 -332 b 929 -301 872 -194 818 -61 b 833 -60 845 -60 852 -59 b 873 -56 902 -46 903 -30 b 904 -13 906 -3 859 0 b 842 1 819 1 793 1 b 788 14 783 28 778 41 b 722 198 672 358 649 422 z m 517 -10 b 584 136 614 268 613 261 b 631 198 666 96 703 -1 b 646 -3 581 -6 517 -10 z"},"f":{"x_min":0,"x_max":261,"ha":261,"o":"m 20 2 b 17 2 15 2 12 2 b 1 3 -4 -11 -5 -22 b -5 -34 -1 -49 10 -50 b 12 -50 13 -50 15 -50 b 7 -141 1 -250 8 -302 b 11 -321 19 -341 38 -347 b 53 -352 86 -346 87 -312 b 91 -213 98 -140 108 -55 b 138 -57 166 -57 199 -55 b 210 -54 214 -37 214 -25 b 213 -14 208 -3 196 -4 b 167 -6 141 -5 115 -4 b 118 22 122 50 126 80 b 134 141 206 145 188 78 b 185 67 183 42 207 38 b 223 35 237 46 250 101 b 257 129 252 164 227 184 b 193 212 131 211 88 185 b 65 171 38 127 31 86 b 28 67 24 37 20 2 z"},"Q":{"x_min":0,"x_max":936,"ha":936,"o":"m 626 -208 b 616 -202 606 -196 596 -190 b 403 -67 266 -31 131 -63 b 130 -31 133 1 139 32 b 168 170 323 399 390 425 b 436 442 502 436 587 405 b 734 351 812 237 812 77 b 812 -34 731 -141 626 -208 z m 511 -263 b 460 -279 409 -285 363 -278 b 235 -258 172 -202 146 -135 b 254 -121 357 -167 511 -263 z m 604 -319 b 716 -382 825 -424 918 -440 b 1021 -458 1093 -416 1122 -388 b 1157 -357 1172 -310 1132 -334 b 1091 -357 1034 -360 967 -349 b 888 -335 798 -301 704 -252 b 808 -166 887 -41 885 119 b 881 443 477 552 363 508 b 175 435 32 220 7 56 b -15 -92 18 -204 84 -280 b 151 -357 245 -385 361 -387 b 432 -388 520 -365 604 -319 z"},"w":{"x_min":0,"x_max":396,"ha":396,"o":"m 171 -158 b 192 -199 230 -230 253 -230 b 279 -230 318 -183 334 -142 b 354 -92 369 -28 375 25 b 376 39 371 52 357 54 b 342 55 329 45 327 30 b 323 -6 312 -54 298 -96 b 293 -111 277 -160 267 -160 b 259 -159 247 -115 245 -100 b 238 -63 236 -21 242 27 b 244 42 237 63 207 67 b 168 73 147 50 145 35 b 140 -9 142 -49 148 -83 b 145 -95 142 -106 138 -117 b 134 -130 119 -174 111 -174 b 103 -174 93 -134 90 -121 b 85 -88 83 -16 91 47 b 92 60 86 79 59 83 b 24 87 6 67 4 54 b -3 -11 -2 -101 17 -156 b 33 -201 74 -238 98 -238 b 122 -238 156 -195 171 -158 z"},"-":{"x_min":0,"x_max":448,"ha":448,"o":"m 12 406 b 22 395 50 393 204 393 b 397 393 413 396 401 433 b 393 455 372 459 272 458 b 108 457 20 448 10 433 b 3 423 4 416 12 406 z"},"E":{"x_min":0,"x_max":979,"ha":979,"o":"m 957 283 b 968 272 1001 286 991 327 b 969 418 497 585 163 291 b -43 110 208 -6 238 -3 b 238 -3 -59 -110 10 -273 b 88 -458 830 -425 950 -151 b 980 -82 914 41 852 -7 b 828 -25 836 -59 854 -69 b 872 -79 895 -132 786 -199 b 593 -317 160 -298 131 -242 b 95 -168 438 -38 536 -8 b 584 7 541 49 519 48 b 486 47 273 51 210 110 b 168 148 190 215 375 301 b 540 378 740 378 864 348 b 917 335 933 307 957 283 z"},"s":{"x_min":0,"x_max":217,"ha":217,"o":"m 158 -26 b 180 3 175 36 167 52 b 154 79 106 93 76 85 b 5 66 -2 -1 8 -34 b 15 -61 32 -83 51 -102 b 63 -114 74 -124 77 -133 b 84 -159 42 -162 40 -134 b 39 -118 29 -109 12 -110 b -5 -112 -13 -127 -12 -138 b -10 -165 0 -184 13 -196 b 40 -223 84 -228 115 -218 b 136 -212 160 -193 171 -176 b 194 -142 183 -94 145 -62 b 122 -42 94 -21 94 4 b 94 10 99 16 108 17 b 115 17 118 9 118 7 b 119 3 115 -1 113 -5 b 107 -15 116 -30 126 -34 b 137 -40 150 -37 158 -26 z"},">":{"x_min":0,"x_max":430,"ha":430,"o":"m 170 -43 b 382 57 379 55 384 77 b 391 103 374 118 254 188 b 104 275 60 297 44 291 b 10 278 31 254 149 173 b 214 127 268 88 268 86 b 267 84 209 51 139 12 b 68 -27 9 -63 6 -69 b 1 -81 19 -104 33 -104 b 38 -104 100 -77 170 -43 z"},"l":{"x_min":0,"x_max":147,"ha":147,"o":"m 24 257 b 13 188 -11 -83 0 -168 b 2 -188 11 -207 29 -213 b 45 -218 77 -212 79 -178 b 85 -30 101 105 122 259 b 131 322 107 348 87 351 b 67 353 38 336 24 257 z"},"8":{"x_min":0,"x_max":681,"ha":681,"o":"m 414 245 b 398 226 374 204 360 195 b 334 180 334 180 291 199 b 252 217 211 254 211 271 b 211 290 267 336 303 348 b 420 387 482 331 414 245 z m 445 -162 b 338 -199 191 -179 169 -124 b 160 -100 179 -56 214 -21 b 252 17 317 63 334 63 b 342 63 383 47 427 28 b 504 -8 552 -47 552 -75 b 552 -96 490 -147 445 -162 z m 172 -277 b 230 -297 369 -298 433 -279 b 531 -251 616 -190 643 -129 b 657 -95 657 -43 642 -9 b 626 29 567 83 508 113 l 457 139 l 493 176 b 512 197 533 226 540 242 b 555 278 555 348 539 377 b 506 439 421 471 334 454 b 133 415 52 250 180 145 b 195 133 205 121 203 120 b 200 118 177 103 150 86 b 89 48 45 -10 33 -66 b 11 -164 61 -240 172 -277 z"},"\\":{"x_min":0,"x_max":575,"ha":575,"o":"m 15 449 b 1 435 2 408 18 387 b 24 378 105 245 197 93 b 443 -314 491 -387 512 -384 b 556 -378 543 -352 253 144 b 164 297 85 430 78 440 b 63 460 32 465 15 449 z"},"e":{"x_min":0,"x_max":293,"ha":293,"o":"m 161 -21 b 145 -40 120 -54 86 -55 b 92 -28 109 -7 124 1 b 163 20 177 -2 161 -21 z m 138 84 l 137 84 b 101 84 41 66 -1 -2 b -13 -22 -23 -58 -20 -94 b -15 -158 38 -189 70 -200 b 125 -219 180 -198 216 -172 b 263 -138 319 -72 346 -32 b 352 -23 350 -10 340 -3 b 331 3 318 1 312 -9 b 286 -47 242 -99 210 -119 b 173 -141 112 -150 87 -99 b 87 -98 86 -97 86 -97 b 144 -96 185 -64 205 -31 b 212 -19 216 -6 218 6 b 222 37 198 84 138 84 z"},"b":{"x_min":0,"x_max":297,"ha":297,"o":"m 105 -32 b 115 -11 136 -9 147 -29 b 158 -49 157 -92 138 -117 b 125 -134 103 -131 96 -110 b 90 -89 94 -54 105 -32 z m 78 -182 b 114 -210 181 -206 221 -163 b 259 -121 269 -40 245 11 b 211 82 137 77 96 43 b 96 43 95 42 95 42 b 102 111 111 181 121 256 b 129 319 106 345 86 347 b 66 350 36 332 23 254 b 11 185 -13 -86 -2 -171 b 1 -191 9 -210 28 -217 b 44 -222 76 -215 78 -182 z"},"%":{"x_min":0,"x_max":524,"ha":524,"o":"m 149 275 b 145 245 113 235 90 256 b 68 279 69 296 95 306 b 127 318 152 303 149 275 z m 64 182 b 99 164 135 161 161 175 b 265 226 253 359 143 388 b 114 396 102 395 80 385 b 46 369 6 311 6 279 b 6 240 31 199 64 182 z m 12 -318 b 30 -336 56 -314 116 -228 b 221 -77 474 323 474 339 b 474 357 452 380 436 380 b 431 380 420 376 412 370 b 397 359 164 -14 66 -184 b 7 -287 -1 -306 12 -318 z m 396 -238 b 392 -268 360 -279 337 -257 b 314 -235 316 -217 342 -207 b 374 -196 399 -210 396 -238 z m 311 -332 b 346 -350 381 -352 408 -339 b 512 -287 500 -154 390 -125 b 361 -117 349 -118 327 -128 b 293 -144 252 -202 252 -235 b 252 -273 277 -314 311 -332 z"},"m":{"x_min":0,"x_max":620,"ha":620,"o":"m 155 -47 b 173 -32 176 -102 186 -151 b 204 -230 269 -208 283 -196 b 309 -175 342 -127 383 -75 b 391 -65 387 -134 410 -175 b 434 -218 474 -209 514 -185 b 559 -158 617 -93 668 -37 b 675 -29 675 -16 666 -8 b 658 0 645 -1 637 -9 b 596 -55 549 -101 510 -132 b 493 -145 475 -142 473 -120 b 470 -93 471 -80 473 -53 b 474 -35 469 -14 460 -4 b 440 16 415 19 392 3 b 367 -14 314 -80 284 -116 b 287 -67 287 -49 283 -11 b 281 14 275 45 259 64 b 233 93 191 87 163 64 b 136 41 91 -18 71 -61 b 73 -40 74 -8 73 19 b 71 45 54 58 37 55 b 26 53 0 39 0 -5 b -2 -91 -3 -163 4 -192 b 6 -202 14 -209 23 -213 b 32 -216 46 -210 52 -203 b 63 -189 109 -85 155 -47 z"},"#":{"x_min":0,"x_max":747,"ha":747,"o":"m 407 -49 b 405 -52 373 -55 335 -55 b 268 -55 266 -54 271 -36 b 274 -26 277 -13 277 -7 b 277 0 297 3 349 3 l 422 3 l 416 -20 b 413 -32 409 -45 407 -49 z m 129 -296 l 129 -296 b 161 -331 210 -301 221 -239 b 224 -222 230 -194 235 -177 l 243 -146 l 311 -146 b 348 -146 379 -149 379 -152 b 379 -156 373 -177 366 -199 b 350 -252 350 -278 367 -296 b 387 -317 417 -315 436 -292 b 445 -281 459 -242 467 -205 l 482 -138 l 535 -137 b 632 -136 660 -127 660 -96 b 660 -68 626 -57 538 -56 b 506 -55 505 -55 511 -28 b 514 -13 519 1 522 4 b 525 7 561 11 602 13 b 678 16 702 26 702 53 b 702 77 682 86 612 91 b 575 94 544 97 543 98 b 542 99 548 133 558 173 b 567 214 574 257 574 269 b 575 299 554 314 529 303 b 514 296 504 275 479 196 l 449 98 l 376 96 b 335 95 302 95 302 96 b 302 98 310 132 319 173 b 328 214 336 257 336 269 b 336 299 316 314 291 303 b 275 296 265 275 241 196 l 211 98 l 144 96 b 66 93 45 81 49 41 b 52 9 79 -5 138 -5 b 181 -5 182 -5 175 -28 b 169 -50 167 -51 102 -53 b 23 -56 2 -68 6 -108 b 9 -140 36 -154 96 -154 b 120 -154 140 -155 140 -156 b 140 -157 135 -177 128 -199 b 111 -252 112 -278 129 -296 z"},",":{"x_min":0,"x_max":153,"ha":153,"o":"m 84 -139 b 51 -114 6 -136 6 -177 b 5 -201 21 -220 43 -221 l 60 -222 l 39 -240 b 22 -254 19 -259 24 -267 b 34 -284 58 -279 80 -257 b 117 -219 119 -166 84 -139 z"},"n":{"x_min":0,"x_max":392,"ha":392,"o":"m 116 -69 b 125 -49 138 -36 146 -51 b 150 -57 150 -68 153 -88 b 156 -110 163 -136 170 -155 b 188 -203 247 -225 293 -201 b 340 -177 398 -94 442 -34 b 449 -25 449 -13 441 -5 b 432 3 419 3 412 -6 b 374 -55 349 -96 310 -126 b 292 -140 269 -137 267 -115 b 264 -88 265 -59 267 -31 b 269 3 260 46 241 66 b 218 89 185 93 155 74 b 118 49 93 -2 73 -45 b 75 -24 76 -5 74 22 b 73 48 56 61 39 58 b 27 56 2 42 1 -2 b 0 -88 -2 -160 5 -189 b 8 -199 16 -207 24 -210 b 33 -213 47 -207 53 -200 b 65 -186 91 -123 116 -69 z"},"h":{"x_min":0,"x_max":403,"ha":403,"o":"m 73 -190 b 85 -172 110 -113 134 -62 b 143 -43 156 -29 163 -44 b 167 -51 167 -62 170 -82 b 174 -104 180 -130 187 -149 b 206 -197 265 -219 311 -195 b 357 -171 415 -88 460 -28 b 466 -19 467 -6 458 1 b 450 9 436 9 429 0 b 391 -49 366 -90 327 -120 b 310 -133 287 -131 284 -108 b 282 -82 283 -52 284 -25 b 286 10 278 53 258 72 b 235 95 202 100 172 80 b 136 56 106 1 86 -42 b 95 59 107 158 122 266 b 130 329 107 355 87 357 b 67 360 37 343 24 264 b 12 195 -12 -76 -1 -161 b 2 -181 10 -200 29 -206 b 41 -210 63 -207 73 -190 z"},"z":{"x_min":0,"x_max":331,"ha":331,"o":"m 74 -39 b 131 -44 178 -13 166 -23 b 124 -57 59 -95 15 -125 b -5 -139 -22 -152 -30 -162 b -39 -173 -38 -183 -36 -189 b -33 -196 -24 -206 -5 -207 b 23 -209 92 -196 157 -195 b 195 -194 231 -197 254 -213 b 263 -219 294 -200 300 -190 b 307 -181 299 -174 289 -167 b 264 -150 226 -143 185 -142 b 160 -141 146 -146 146 -146 b 146 -146 243 -85 280 -55 b 298 -41 320 -29 320 -14 b 320 62 236 69 192 55 b 152 42 129 31 83 34 b 61 36 42 42 35 61 b 28 80 13 81 3 71 b -13 55 -8 28 -4 17 b 9 -20 32 -36 74 -39 z"},"B":{"x_min":0,"x_max":1393,"ha":1393,"o":"m 918 -78 b 1101 -91 1220 -176 1050 -256 b 845 -352 608 -286 566 -263 b 551 -254 513 -230 525 -279 b 534 -319 598 -360 660 -377 b 789 -413 1131 -404 1219 -234 b 1274 -127 1190 -70 1107 -41 b 1314 19 1406 129 1407 236 b 1408 322 1284 514 820 441 b 324 362 49 -2 2 -228 b -5 -259 12 -261 19 -262 b 35 -265 41 -247 41 -247 b 41 -247 176 155 636 310 b 1096 466 1298 319 1305 248 b 1315 160 1175 58 1010 22 b 892 -3 850 0 850 0 b 850 0 858 113 860 179 b 865 292 824 279 814 274 b 795 266 744 236 739 175 b 734 98 734 -12 734 -12 b 734 -12 632 -13 563 10 b 533 20 528 9 527 2 b 526 -7 534 -18 542 -25 b 586 -67 649 -85 728 -85 b 728 -85 726 -217 735 -265 b 740 -289 754 -290 779 -289 b 804 -288 808 -287 820 -260 b 834 -225 843 -85 843 -85 b 843 -85 872 -84 918 -78 z"},"K":{"x_min":0,"x_max":658,"ha":658,"o":"m 13 365 b 9 292 5 179 1 16 b -2 -136 3 -279 5 -313 b 11 -432 85 -433 87 -303 b 87 -289 89 -211 93 -124 b 93 -122 218 -285 511 -351 b 804 -417 981 -348 1014 -274 b 1022 -259 1013 -238 996 -232 b 981 -228 965 -235 958 -240 b 949 -246 841 -328 545 -250 b 336 -194 156 -48 164 -39 b 200 -3 248 41 305 84 b 413 167 528 244 592 279 b 621 295 611 325 587 325 b 577 325 530 328 409 254 b 266 167 97 -6 97 8 b 103 166 108 330 107 367 b 106 395 95 460 57 457 b 32 456 16 415 13 365 z"},"R":{"x_min":0,"x_max":1658,"ha":1658,"o":"m 993 -225 b 1072 -311 1192 -377 1306 -399 b 1369 -411 1465 -413 1531 -392 b 1624 -363 1671 -280 1621 -310 b 1570 -339 1492 -342 1410 -326 b 1294 -303 1170 -243 1101 -154 b 1144 -148 1197 -139 1257 -125 b 1539 -58 1668 114 1665 216 b 1663 292 1520 546 971 458 b 383 365 58 -66 2 -333 b -6 -370 14 -372 22 -374 b 41 -377 48 -356 48 -356 b 48 -356 208 120 752 304 b 1297 488 1547 306 1556 221 b 1567 118 1391 -4 1196 -45 b 1056 -75 1006 -72 1006 -72 b 1006 -72 1015 71 1018 149 b 1024 282 975 266 963 261 b 941 251 880 216 875 144 b 869 53 868 -78 868 -78 b 868 -78 748 -79 667 -51 b 631 -39 624 -53 623 -61 b 622 -71 632 -85 641 -93 b 694 -143 768 -163 862 -163 b 862 -163 859 -320 870 -376 b 875 -405 892 -406 922 -405 b 951 -404 957 -403 970 -371 b 980 -346 988 -277 993 -225 z"},"T":{"x_min":0,"x_max":619,"ha":619,"o":"m 398 461 b 240 465 87 454 51 441 b 19 429 -2 410 0 394 b 3 376 28 373 53 371 b 54 371 223 379 399 377 b 399 304 400 192 398 83 b 395 -66 380 -222 370 -266 b 353 -347 405 -365 422 -366 b 474 -370 495 -328 499 -300 b 503 -267 504 -114 502 58 b 500 174 493 294 485 375 b 621 372 768 367 806 367 b 864 367 957 375 968 415 b 983 465 940 479 901 479 b 807 479 684 452 476 458 b 475 460 475 461 475 462 b 469 495 455 510 432 508 b 409 505 400 486 398 461 z"},"P":{"x_min":0,"x_max":1681,"ha":1681,"o":"m 48 -375 b 48 -375 208 101 752 285 b 1297 469 1547 287 1556 202 b 1567 99 1391 -23 1196 -65 b 1056 -94 1006 -92 1006 -92 b 1006 -92 1015 52 1018 130 b 1024 263 975 247 963 242 b 941 232 880 197 875 125 b 869 34 868 -97 868 -97 b 868 -97 748 -98 667 -71 b 631 -58 625 -72 623 -80 b 622 -90 632 -104 641 -112 b 694 -162 768 -183 862 -183 b 862 -183 859 -340 870 -396 b 875 -424 892 -425 922 -424 b 951 -423 957 -422 970 -390 b 987 -348 998 -183 998 -183 b 998 -183 1110 -179 1257 -144 b 1539 -78 1668 95 1665 197 b 1663 273 1520 526 971 439 b 383 346 58 -85 2 -352 b -6 -389 14 -391 22 -393 b 41 -396 48 -375 48 -375 z"},"|":{"x_min":0,"x_max":117,"ha":117,"o":"m 24 -404 b 46 -409 59 -402 64 -382 b 69 -356 76 356 71 408 b 66 456 51 470 28 448 b 15 436 13 386 8 27 b 6 -198 5 -386 7 -391 b 8 -397 16 -402 24 -404 z"},"t":{"x_min":0,"x_max":157,"ha":157,"o":"m 22 236 l -9 236 b -20 236 -24 222 -24 210 b -24 199 -21 185 -9 185 l 16 185 b 5 76 -8 -102 1 -168 b 4 -188 12 -207 31 -213 b 46 -218 79 -212 80 -178 b 85 -55 97 59 113 184 l 150 183 b 162 183 164 198 165 209 b 165 221 162 234 151 234 l 120 234 b 121 243 122 251 123 259 b 132 322 108 348 88 351 b 68 353 39 336 26 257 b 25 252 23 244 22 236 z"},"M":{"x_min":0,"x_max":1186,"ha":1186,"o":"m 337 242 b 210 387 118 441 60 454 b -2 468 -17 436 21 402 b 96 336 244 132 244 132 b 244 132 226 6 218 -94 b 203 -297 191 -360 257 -359 b 309 -358 317 -337 329 -181 b 335 -92 335 24 335 24 b 335 24 493 -191 549 -203 b 763 -251 1014 233 1014 233 b 1014 233 981 -19 984 -111 b 988 -259 997 -315 1007 -332 b 1019 -355 1032 -358 1066 -358 b 1099 -358 1099 -337 1099 -289 b 1099 -126 1158 377 1158 403 b 1159 432 1119 438 1097 436 b 1075 434 1055 409 1039 384 b 1024 361 726 -108 611 -94 b 539 -85 473 88 337 242 z"},"g":{"x_min":0,"x_max":285,"ha":285,"o":"m 89 -142 b 76 -159 67 -153 66 -140 b 65 -109 76 -58 103 -23 b 111 -13 118 -7 125 -6 b 134 -3 139 -14 139 -24 b 136 -65 110 -115 89 -142 z m 147 -142 b 143 -190 136 -249 123 -268 b 113 -284 85 -300 65 -284 b 50 -271 27 -268 14 -283 b 1 -298 6 -323 17 -340 b 44 -383 115 -390 159 -356 b 204 -322 228 -261 243 -184 b 258 -106 262 -26 245 19 b 235 45 214 63 179 50 b 173 48 168 44 162 39 b 156 46 148 52 139 57 b 115 68 74 67 43 42 b 0 8 -34 -53 -29 -118 b -26 -163 -9 -189 10 -203 b 34 -220 74 -216 96 -202 b 114 -191 132 -169 147 -142 z"},"j":{"x_min":0,"x_max":167,"ha":167,"o":"m 52 208 b 20 208 -5 184 -5 154 b -5 125 20 101 52 101 b 83 101 108 125 108 154 b 108 184 83 208 52 208 z m 8 -22 b 13 -40 20 -58 17 -105 b 15 -153 2 -241 -8 -268 b -29 -324 -51 -353 -42 -369 b -35 -380 -6 -382 28 -356 b 72 -322 96 -261 111 -184 b 127 -106 131 -26 113 19 b 104 45 83 63 47 50 b 25 41 -1 9 8 -22 z"},"i":{"x_min":0,"x_max":246,"ha":246,"o":"m 74 211 b 43 211 18 187 18 157 b 18 128 43 104 74 104 b 106 104 131 128 131 157 b 131 187 106 211 74 211 z m 96 -201 b 119 -202 143 -197 169 -181 b 213 -155 263 -80 296 -32 b 303 -23 300 -10 291 -3 b 281 3 268 1 262 -9 b 236 -47 197 -112 163 -136 b 135 -156 105 -151 99 -124 b 94 -103 103 4 104 35 b 105 53 95 78 66 80 b 48 81 29 68 16 49 b 3 30 -7 -26 -6 -63 b -5 -138 39 -200 96 -201 z"},"y":{"x_min":0,"x_max":318,"ha":318,"o":"m 189 -78 b 189 -84 189 -81 188 -89 b 186 -137 178 -228 163 -252 b 153 -268 124 -284 104 -268 b 89 -255 67 -252 53 -267 b 40 -282 45 -307 56 -324 b 83 -367 155 -374 199 -340 b 243 -306 267 -245 282 -168 b 298 -90 301 -10 284 35 b 275 61 254 79 218 66 b 204 60 190 43 181 17 b 167 -22 155 -63 142 -82 b 127 -104 109 -95 106 -78 b 101 -58 98 -2 102 30 b 104 49 94 72 75 78 b 58 83 35 74 21 55 b 3 28 -1 -16 0 -48 b 2 -100 29 -146 63 -159 b 88 -169 118 -163 141 -148 b 163 -133 181 -108 189 -78 z"},"@":{"x_min":0,"x_max":1119,"ha":1119,"o":"m 443 1 b 385 -35 359 -31 374 10 b 391 58 495 125 539 116 b 551 114 548 106 518 69 b 498 45 464 14 443 1 z m 446 -345 b 638 -372 890 -311 1002 -211 b 1049 -168 1068 -93 1040 -63 b 1010 -31 960 -57 973 -97 b 986 -138 872 -209 741 -240 b 653 -260 499 -264 420 -247 b 310 -224 221 -165 179 -86 b 160 -50 157 -33 156 27 b 156 111 171 157 225 231 b 267 289 335 340 406 367 b 473 393 603 393 671 367 b 771 328 839 258 859 172 b 879 86 823 -15 755 -15 l 729 -15 l 736 33 b 747 108 745 147 727 166 b 708 187 662 197 639 185 b 626 178 613 181 581 197 b 545 215 530 218 479 215 b 428 213 412 208 375 185 b 315 147 269 81 264 24 b 260 -29 276 -67 313 -85 b 370 -114 437 -91 522 -14 b 574 34 586 38 586 10 b 586 -15 647 -95 680 -113 b 813 -186 977 -21 946 156 b 932 230 905 280 846 337 b 675 501 399 498 214 330 b 37 169 17 -72 168 -219 b 235 -284 335 -329 446 -345 z"},".":{"x_min":0,"x_max":163,"ha":163,"o":"m 62 -129 b 31 -129 6 -153 6 -182 b 6 -212 31 -236 62 -236 b 94 -236 119 -212 119 -182 b 119 -153 94 -129 62 -129 z"},"p":{"x_min":0,"x_max":289,"ha":289,"o":"m 108 -18 b 119 3 140 6 151 -15 b 161 -35 161 -78 142 -103 b 128 -120 106 -117 100 -96 b 94 -75 97 -40 108 -18 z m 79 -167 b 116 -196 184 -192 224 -149 b 262 -107 272 -26 248 25 b 215 96 140 92 100 58 l 100 57 b 93 82 79 93 66 95 b 46 98 16 80 3 2 b -9 -67 -30 -299 -19 -384 b -17 -403 -8 -423 10 -429 b 26 -434 59 -428 60 -394 b 64 -303 69 -256 79 -167 z"},"X":{"x_min":0,"x_max":958,"ha":958,"o":"m 432 19 b 260 -117 99 -250 28 -311 b -20 -354 -5 -402 65 -359 b 99 -339 292 -199 502 -42 b 664 -182 829 -309 919 -355 b 1106 -451 1164 -380 1095 -337 b 1061 -316 844 -139 617 44 b 800 182 976 318 1051 385 b 1083 413 993 421 942 391 b 851 337 699 225 543 105 b 363 250 190 390 109 451 b 76 476 44 426 117 335 b 185 250 304 133 432 19 z"},"*":{"x_min":0,"x_max":272,"ha":272,"o":"m 103 283 b 100 285 98 287 96 288 b 69 311 48 327 48 327 b 45 330 40 330 37 327 b 35 324 35 319 37 316 b 37 316 53 295 76 268 b 77 267 77 266 78 265 b 78 265 77 265 77 265 b 42 262 15 259 15 259 b 10 259 6 254 6 249 b 6 244 10 239 15 239 b 15 239 42 236 77 233 b 78 233 79 233 80 233 b 79 233 79 232 78 231 b 55 205 39 183 39 183 b 35 180 35 173 39 170 b 43 166 49 166 53 170 b 53 170 73 186 99 208 b 101 174 103 147 103 147 b 103 142 107 137 113 137 b 118 137 123 141 123 146 b 123 146 127 173 131 208 b 131 209 131 209 131 210 b 132 210 132 209 133 209 b 159 186 181 170 181 170 b 184 166 191 166 194 170 b 198 173 198 180 194 183 b 194 183 178 205 155 231 b 154 232 154 233 153 234 b 155 234 157 235 159 235 b 194 238 220 242 220 242 b 224 242 228 245 228 249 b 228 253 224 256 220 256 b 220 256 194 260 159 264 b 157 264 156 264 154 264 b 155 265 156 267 158 268 b 180 295 196 316 196 316 b 199 319 199 324 196 327 b 193 330 189 330 186 327 b 186 327 164 311 137 288 b 136 287 134 286 133 284 b 132 286 132 288 132 290 b 130 324 127 351 127 351 b 127 355 124 359 120 359 b 116 359 113 356 113 352 b 113 352 108 325 103 291 b 103 288 103 286 103 283 z"},"Y":{"x_min":0,"x_max":897,"ha":897,"o":"m 52 -452 b 318 -461 872 103 954 384 b 979 471 919 448 870 373 b 826 306 654 58 505 -70 b 334 54 121 361 106 411 b 92 462 27 494 46 378 b 71 224 302 -55 432 -143 b 365 -220 186 -323 87 -362 b -31 -409 -15 -450 52 -452 z"},"c":{"x_min":0,"x_max":284,"ha":284,"o":"m 74 -199 b 129 -218 184 -196 220 -171 b 267 -137 323 -71 350 -31 b 356 -21 354 -8 344 -2 b 335 5 322 2 316 -7 b 290 -45 245 -98 214 -117 b 175 -141 110 -150 87 -90 b 72 -50 105 -9 126 2 b 144 11 155 14 164 9 b 173 4 163 -14 189 -18 b 200 -19 208 -13 213 -7 b 236 18 211 85 141 85 b 105 85 45 67 3 -1 b -9 -21 -19 -56 -16 -93 b -11 -156 42 -188 74 -199 z"},"!":{"x_min":0,"x_max":189,"ha":189,"o":"m 36 -422 b 82 -454 144 -420 145 -364 b 145 -291 49 -277 13 -344 b -2 -373 6 -402 36 -422 z m 41 -266 l 41 -266 b 63 -282 90 -280 108 -261 b 119 -249 125 -223 130 -172 b 139 -69 139 366 130 405 b 115 466 68 477 43 426 b 20 381 10 255 10 27 b 11 -196 16 -249 41 -266 z"},"/":{"x_min":0,"x_max":658,"ha":658,"o":"m 76 -374 b 93 -390 124 -386 139 -366 b 146 -356 226 -222 315 -70 b 604 426 617 452 573 458 b 552 461 504 388 258 -19 b 166 -171 85 -303 79 -313 b 64 -334 63 -361 76 -374 z"},"[":{"x_min":0,"x_max":234,"ha":234,"o":"m 178 449 l 178 449 b 167 457 143 460 96 458 b 41 455 26 452 16 438 b 5 424 4 379 8 87 b 11 -98 16 -294 19 -351 b 24 -445 26 -454 44 -465 b 61 -476 71 -476 121 -467 b 174 -456 179 -454 182 -433 b 185 -410 181 -408 122 -398 l 90 -393 l 90 -122 b 90 27 87 202 84 267 l 79 385 l 99 385 b 167 385 214 423 178 449 z"},"6":{"x_min":0,"x_max":642,"ha":642,"o":"m 441 -166 b 365 -203 277 -190 224 -135 b 205 -115 205 -111 214 -83 b 230 -35 297 24 351 40 b 408 57 423 56 467 37 b 559 -4 545 -116 441 -166 z m 267 -286 b 312 -295 390 -289 436 -274 b 484 -257 548 -210 573 -173 b 728 57 411 254 207 55 l 160 10 l 166 63 b 170 99 181 135 205 182 b 282 335 437 414 543 354 b 572 338 597 343 597 365 b 597 387 535 438 492 450 b 433 466 338 458 282 433 b 192 392 117 316 69 217 b 36 148 24 88 29 8 b 35 -87 60 -147 120 -204 b 170 -253 209 -275 267 -286 z"},"r":{"x_min":0,"x_max":358,"ha":358,"o":"m 117 -86 b 125 -142 168 -189 213 -193 b 236 -195 260 -189 287 -173 b 330 -146 383 -80 416 -31 b 422 -22 420 -9 410 -2 b 401 4 388 1 381 -8 b 356 -46 314 -104 280 -128 b 255 -145 230 -140 223 -122 b 217 -109 225 -69 230 -44 b 237 -16 225 6 199 12 b 180 16 110 12 105 22 b 97 38 120 46 120 73 b 120 98 79 119 49 105 b -6 79 -16 22 2 -10 b 21 -42 58 -47 91 -53 b 106 -55 114 -63 117 -86 z"},"2":{"x_min":0,"x_max":654,"ha":654,"o":"m 44 -264 b 51 -267 173 -270 316 -270 b 566 -270 576 -270 599 -253 b 613 -243 625 -227 626 -217 b 631 -185 615 -177 553 -181 b 521 -182 435 -177 361 -169 l 227 -154 l 306 -96 b 490 38 576 150 584 260 b 591 368 543 431 437 454 b 347 474 205 424 125 345 b 56 276 9 162 35 127 b 52 105 74 118 88 159 b 104 202 156 272 200 308 b 269 363 375 391 435 368 b 480 352 496 322 489 270 b 480 188 433 135 250 1 b 101 -108 67 -136 47 -165 b 29 -192 26 -254 44 -264 z"},"{":{"x_min":0,"x_max":291,"ha":291,"o":"m 239 446 b 203 489 92 412 65 324 b 58 302 51 246 48 199 b 43 134 37 105 21 71 b 0 28 0 11 23 11 b 49 11 62 -45 69 -195 b 76 -356 87 -396 131 -432 b 160 -456 199 -457 204 -434 b 205 -426 197 -412 185 -401 b 153 -374 146 -339 146 -195 b 146 -63 134 6 108 27 b 98 36 98 41 109 67 b 117 85 124 141 128 205 b 136 340 153 376 216 400 b 244 410 254 429 239 446 z"},"9":{"x_min":0,"x_max":642,"ha":642,"o":"m 284 127 b 269 124 251 121 244 119 b 201 111 138 145 120 187 b 103 224 111 257 145 295 b 181 335 229 354 289 355 b 360 355 432 316 432 276 b 432 229 343 139 284 127 z m 141 -278 b 205 -299 302 -290 369 -258 b 532 -180 638 21 610 196 b 593 302 537 383 447 430 b 397 457 388 458 312 458 b 241 458 226 456 183 435 b 88 390 29 312 28 231 b 27 168 35 145 72 106 b 121 53 160 37 240 36 b 299 36 315 39 357 60 b 385 74 422 101 440 120 l 474 156 l 474 124 b 474 13 381 -128 276 -179 b 234 -199 220 -201 168 -198 b 125 -196 104 -191 91 -179 b 73 -163 50 -168 42 -189 b 36 -208 101 -266 141 -278 z"}," ":{"x_min":0,"x_max":293,"ha":293,"o":""},"I":{"x_min":0,"x_max":514,"ha":514,"o":"m 256 378 b 251 304 245 206 245 43 b 245 -99 239 -273 241 -295 b 155 -295 103 -300 71 -314 b 7 -343 13 -384 48 -382 b 131 -378 426 -367 552 -378 b 630 -385 586 -314 534 -302 b 481 -289 384 -294 329 -294 b 329 -249 351 307 349 378 b 349 388 497 381 594 389 b 651 393 628 450 585 452 b 508 456 139 463 33 447 b 14 444 -25 398 22 386 b 54 378 256 388 256 378 z"},"H":{"x_min":0,"x_max":1114,"ha":1114,"o":"m 235 388 b 231 284 249 -117 249 -117 b 249 -117 104 -121 32 -139 b 11 -144 -1 -163 0 -177 b 1 -191 16 -203 40 -204 b 113 -206 250 -196 250 -196 b 250 -196 245 -343 243 -358 b 234 -418 326 -393 340 -376 b 353 -360 368 -196 368 -196 l 949 -168 b 949 -168 942 -292 939 -354 b 936 -399 1045 -417 1048 -370 b 1050 -315 1059 -150 1059 -150 b 1059 -150 1083 -144 1082 -123 b 1082 -101 1055 -98 1055 -98 b 1055 -98 1073 336 1083 424 b 1086 457 1030 473 1008 399 b 986 325 949 -92 949 -92 l 368 -117 b 368 -117 368 317 341 397 b 311 487 237 470 235 388 z"},"4":{"x_min":0,"x_max":610,"ha":610,"o":"m 489 -281 b 511 -308 536 -309 563 -285 l 582 -267 l 582 67 b 582 343 580 406 570 431 b 553 470 525 467 504 425 b 487 392 472 270 472 166 l 472 102 l 359 103 b 297 104 243 107 240 109 b 236 110 241 126 250 143 b 286 211 312 312 313 384 b 314 450 313 455 296 457 b 272 461 253 430 205 310 b 154 180 111 100 84 83 b 25 45 10 -1 50 -26 b 79 -44 117 -35 152 0 l 180 28 l 326 28 l 472 28 l 472 -115 b 472 -248 473 -261 489 -281 z"},"~":{"x_min":0,"x_max":478,"ha":478,"o":"m 99 -47 b 137 -56 176 -48 260 -17 b 338 13 355 13 380 -14 b 415 -51 449 -16 428 34 b 403 92 328 99 218 53 b 140 20 108 20 73 53 b 42 82 15 81 7 51 b -3 13 43 -35 99 -47 z"},"D":{"x_min":0,"x_max":1417,"ha":1417,"o":"m 860 173 b 865 285 824 272 814 268 b 795 259 744 230 739 169 b 734 92 726 -197 735 -244 b 740 -269 754 -269 779 -268 b 804 -267 808 -267 820 -240 b 834 -204 858 107 860 173 z m 1088 -159 b 923 -310 669 -309 588 -259 b 539 -228 513 -258 544 -306 b 574 -355 711 -395 827 -379 b 1167 -333 1407 -62 1382 197 b 1369 334 1256 511 817 441 b 320 363 49 -8 2 -234 b -5 -265 12 -267 19 -268 b 35 -271 41 -253 41 -253 b 41 -253 176 149 636 304 b 1096 459 1226 327 1257 242 b 1295 136 1269 5 1088 -159 z"},"^":{"x_min":0,"x_max":274,"ha":274,"o":"m 10 288 b 31 264 53 279 99 349 l 123 384 l 146 349 b 176 303 202 281 218 287 b 237 294 234 320 210 366 b 180 424 148 458 124 458 b 102 458 64 414 22 340 b 4 308 2 298 10 288 z"},"0":{"x_min":0,"x_max":583,"ha":583,"o":"m 294 -164 b 234 -195 172 -162 130 -77 b 106 -26 101 22 104 73 b 109 150 120 233 172 297 b 279 429 418 354 430 157 b 432 117 429 65 424 39 b 405 -52 351 -135 294 -164 z m 210 -264 b 338 -309 475 -210 539 -27 b 551 7 556 67 555 114 b 554 168 552 216 531 273 b 472 428 338 497 216 437 b 104 382 28 228 28 60 b 28 -97 100 -226 210 -264 z"},"F":{"x_min":0,"x_max":1311,"ha":1311,"o":"m 1346 384 b 1404 394 1502 409 1552 444 b 1592 472 1598 511 1555 519 b 1537 522 1461 489 1369 469 b 1285 451 1162 446 968 415 b 380 322 58 -87 2 -354 b -6 -391 14 -393 22 -394 b 41 -398 48 -377 48 -377 b 48 -377 208 99 752 283 b 1026 375 1148 351 1346 384 z m 1183 -101 b 1272 -94 1266 -17 1199 -14 b 1093 -9 1006 -14 1006 -14 b 1006 -14 1015 129 1018 207 b 1024 340 975 324 963 319 b 941 309 880 274 875 202 b 869 111 868 -20 868 -20 b 868 -20 770 -20 696 -67 b 655 -93 653 -123 661 -136 b 668 -147 694 -147 705 -142 b 745 -123 768 -105 862 -105 b 862 -105 859 -262 870 -318 b 875 -347 892 -348 922 -347 b 951 -345 957 -345 970 -313 b 987 -271 998 -106 998 -106 b 998 -106 1065 -110 1183 -101 z"},"`":{"x_min":0,"x_max":154,"ha":154,"o":"m 109 325 b 113 336 100 369 83 414 b 66 458 49 462 31 457 b 18 453 8 442 6 437 b 1 426 80 308 93 308 b 98 308 105 316 109 325 z"},"k":{"x_min":0,"x_max":251,"ha":251,"o":"m 84 -87 b 86 -91 88 -95 90 -99 b 96 -112 107 -135 112 -152 b 132 -226 193 -257 230 -245 b 247 -239 272 -227 276 -193 b 277 -181 250 -194 233 -194 b 218 -195 207 -172 201 -162 b 195 -150 180 -113 173 -100 b 156 -68 139 -48 112 -29 b 151 -12 185 8 219 52 b 227 61 222 77 215 86 b 208 95 188 111 181 101 b 154 62 129 36 92 14 b 100 93 111 177 122 262 b 131 325 107 350 87 353 b 67 355 38 338 24 260 b 13 191 -11 -81 0 -166 b 2 -185 11 -205 29 -211 b 45 -216 78 -210 79 -176 b 80 -146 82 -116 84 -87 z"},"u":{"x_min":0,"x_max":355,"ha":355,"o":"m 187 -120 b 183 -175 225 -221 285 -188 b 325 -167 345 -134 409 -34 b 415 -23 412 -10 402 -3 b 392 3 378 0 372 -10 b 338 -64 318 -90 292 -119 b 269 -147 262 -127 264 -107 b 269 -29 279 15 277 45 b 276 55 261 66 250 69 b 233 73 212 71 203 62 b 190 49 165 -59 136 -116 b 125 -138 111 -160 104 -143 b 94 -118 104 -14 107 28 b 109 52 84 76 57 80 b 27 83 15 57 11 46 b 0 18 -1 -100 1 -133 b 5 -198 47 -227 95 -217 b 143 -208 170 -170 187 -120 z"},"]":{"x_min":0,"x_max":234,"ha":234,"o":"m 18 -464 l 18 -464 b 29 -472 53 -475 101 -473 b 155 -471 170 -467 180 -454 b 192 -439 193 -394 188 -102 b 185 83 180 279 177 336 b 172 430 170 439 152 450 b 135 461 125 461 75 451 b 22 441 17 439 14 418 b 11 395 15 393 74 383 l 106 378 l 106 107 b 106 -42 109 -217 112 -282 l 117 -400 l 97 -400 b 29 -400 -18 -438 18 -464 z"},"U":{"x_min":0,"x_max":1216,"ha":1216,"o":"m 1139 -351 b 1156 -309 1184 209 1187 287 b 1193 420 1142 411 1129 405 b 1117 400 1083 375 1062 340 b 1045 311 1041 275 1027 246 b 997 186 720 -239 453 -259 b 353 -267 198 -280 138 -62 b 89 117 208 368 212 374 b 261 456 204 469 167 449 b 73 396 10 226 1 60 b -11 -158 114 -374 387 -357 b 728 -337 980 52 996 77 b 988 53 981 -320 996 -356 b 1007 -383 1061 -386 1091 -385 b 1120 -383 1126 -383 1139 -351 z"},"o":{"x_min":0,"x_max":258,"ha":258,"o":"m 70 -22 b 80 1 101 3 113 -19 b 124 -42 125 -89 107 -116 b 94 -134 71 -130 64 -107 b 57 -84 60 -45 70 -22 z m 2 -59 b 1 -114 16 -150 36 -174 b 71 -217 149 -219 191 -168 b 229 -124 237 -35 211 22 b 175 101 99 96 60 66 b 28 41 2 -5 2 -59 z"},"N":{"x_min":0,"x_max":987,"ha":987,"o":"m 57 418 b 57 418 44 437 18 429 b 6 425 0 412 0 399 b -2 301 32 152 85 51 b 85 51 68 -99 45 -224 b 36 -275 13 -340 4 -371 b -7 -404 19 -412 46 -412 b 82 -411 89 -415 111 -376 b 121 -357 133 -329 143 -290 b 174 -178 179 -106 179 -106 b 179 -106 394 -446 648 -428 b 874 -412 945 -146 957 80 b 968 266 935 435 933 443 b 929 459 910 458 904 456 b 899 454 895 451 897 432 b 899 416 947 -315 667 -329 b 411 -341 57 418 57 418 z"},"+":{"x_min":0,"x_max":448,"ha":448,"o":"m 185 244 b 175 235 172 210 172 82 b 72 78 17 70 10 59 b 3 49 4 41 12 32 b 21 22 46 19 172 19 b 172 -143 177 -156 212 -145 b 234 -137 238 -116 237 -16 b 237 -4 237 8 237 19 b 399 19 412 24 401 59 b 393 81 372 85 272 84 b 259 84 247 84 235 83 b 231 184 224 239 212 246 b 202 253 195 252 185 244 z"},"G":{"x_min":0,"x_max":927,"ha":927,"o":"m 583 232 l 583 232 b 554 283 423 195 434 96 b 449 -34 675 -57 810 85 b 945 227 838 454 545 471 b 266 486 45 275 10 118 b -48 -145 161 -288 319 -321 b 514 -363 727 -302 787 -252 b 787 -252 792 -307 813 -346 b 840 -395 892 -429 888 -399 b 873 -281 862 -101 887 27 b 899 87 780 41 778 -33 b 776 -84 780 -176 780 -176 b 770 -185 687 -224 619 -240 b 235 -330 21 -78 130 143 b 246 378 526 442 718 336 b 909 230 695 42 561 78 b 510 91 516 142 547 170 b 584 202 593 213 583 232 z"},"q":{"x_min":0,"x_max":299,"ha":299,"o":"m 138 -92 b 127 -114 107 -116 96 -96 b 85 -76 85 -33 105 -8 b 118 10 140 7 146 -14 b 153 -35 149 -71 138 -92 z m 180 43 b 178 45 177 47 176 48 b 143 86 66 86 22 38 b -16 -3 -26 -85 -2 -136 b 31 -207 106 -202 146 -168 b 147 -167 148 -166 149 -165 b 141 -265 136 -340 143 -391 b 146 -410 154 -429 173 -436 b 188 -441 221 -435 222 -401 b 228 -253 244 -157 265 -2 b 273 60 250 86 230 89 b 215 91 194 81 180 43 z"},"d":{"x_min":0,"x_max":299,"ha":299,"o":"m 79 -140 b 65 -155 56 -148 57 -135 b 60 -104 77 -54 108 -23 b 117 -14 124 -9 131 -9 b 141 -7 145 -19 143 -29 b 136 -69 104 -116 79 -140 z m 159 47 b 157 49 155 50 153 52 b 131 66 90 70 56 49 b 9 20 -32 -37 -35 -102 b -37 -147 -23 -175 -6 -191 b 15 -211 56 -211 79 -200 b 104 -189 130 -160 150 -126 b 150 -158 151 -185 153 -203 b 156 -223 164 -242 183 -248 b 198 -254 231 -247 232 -213 b 238 -66 255 70 275 224 b 284 287 261 313 241 315 b 220 318 191 300 178 222 b 173 192 165 123 159 47 z"},"1":{"x_min":0,"x_max":387,"ha":387,"o":"m 42 -270 b 63 -290 303 -285 337 -263 b 349 -255 360 -245 360 -241 b 360 -226 332 -207 296 -198 l 259 -189 l 253 -138 b 246 -72 262 181 279 277 b 302 405 299 426 248 451 b 215 468 196 459 113 388 b 37 323 30 303 73 283 b 91 274 106 274 135 280 b 173 287 174 287 169 270 b 155 218 145 13 152 -85 l 160 -191 l 116 -199 b 73 -208 28 -234 28 -249 b 28 -253 34 -262 42 -270 z"},"5":{"x_min":0,"x_max":718,"ha":718,"o":"m 204 -286 b 226 -290 280 -291 324 -290 b 535 -280 702 -155 690 -15 b 681 93 563 170 406 170 b 364 170 293 159 266 149 b 255 145 253 159 252 239 l 251 333 l 414 338 b 503 340 591 346 608 351 b 674 371 702 415 669 447 b 657 459 645 460 603 456 b 575 453 482 447 397 443 b 225 434 177 423 163 386 b 158 374 151 299 147 220 b 141 100 142 72 152 52 b 167 24 180 23 224 50 b 291 91 406 106 486 83 b 669 29 589 -121 352 -166 b 245 -187 134 -169 97 -126 b 73 -97 28 -121 28 -162 b 28 -210 112 -270 204 -286 z"}}}
